<svg width="42" height="42" viewBox="0 0 42 42" fill="none" xmlns="http://www.w3.org/2000/svg">
<path d="M33.4482 22.1851L32.3718 21.1867L33.4482 22.1851ZM19.6067 8.34357L20.605 9.41999L19.6067 8.34357ZM40.0202 5.47486L41.4759 5.66525L40.0202 5.47486ZM36.3169 1.77158L36.5073 3.22729L36.3169 1.77158ZM10.3319 21.8752L11.6502 22.5215L10.3319 21.8752ZM19.9166 31.4598L19.2703 30.1416L19.9166 31.4598ZM17.5668 20.8371C16.9935 20.2638 16.0639 20.2638 15.4906 20.8371C14.9172 21.4104 14.9172 22.34 15.4906 22.9133L17.5668 20.8371ZM22.7211 30.1438C23.2944 30.7172 24.224 30.7172 24.7973 30.1438C25.3707 29.5705 25.3707 28.641 24.7973 28.0676L22.7211 30.1438ZM10.2638 33.6042C10.8371 33.0309 10.8371 32.1013 10.2638 31.528C9.69043 30.9547 8.76087 30.9547 8.18754 31.528L10.2638 33.6042ZM2.65094 37.0646C2.07761 37.6379 2.07761 38.5675 2.65094 39.1408C3.22427 39.7142 4.15383 39.7142 4.72717 39.1408L2.65094 37.0646ZM6.11132 29.4518C6.68465 28.8784 6.68465 27.9489 6.11131 27.3755C5.53798 26.8022 4.60842 26.8022 4.03509 27.3755L6.11132 29.4518ZM1.26679 30.1438C0.693457 30.7172 0.693458 31.6467 1.26679 32.2201C1.84013 32.7934 2.76968 32.7934 3.34302 32.2201L1.26679 30.1438ZM14.4162 37.7567C14.9895 37.1833 14.9895 36.2538 14.4162 35.6804C13.8429 35.1071 12.9133 35.1071 12.34 35.6804L14.4162 37.7567ZM9.57169 38.4487C8.99835 39.0221 8.99836 39.9516 9.57169 40.525C10.145 41.0983 11.0746 41.0983 11.6479 40.525L9.57169 38.4487ZM19.8144 38.1719C19.6997 37.3692 18.9561 36.8115 18.1534 36.9262C17.3508 37.0408 16.793 37.7845 16.9077 38.5872L19.8144 38.1719ZM28.4653 31.5972L29.9187 31.3896L28.4653 31.5972ZM3.20456 24.8841C4.00723 24.9988 4.75087 24.4411 4.86554 23.6384C4.98021 22.8357 4.42247 22.0921 3.61981 21.9774L3.20456 24.8841ZM10.1945 13.3265L9.98689 14.7798L9.98689 14.7798L10.1945 13.3265ZM30.536 1.37502C29.75 1.57403 29.2741 2.37256 29.4732 3.15857C29.6722 3.94458 30.4707 4.42044 31.2567 4.22142L30.536 1.37502ZM25.4116 6.26925C26.1447 5.92294 26.4583 5.04787 26.112 4.31474C25.7657 3.5816 24.8906 3.26802 24.1575 3.61433L25.4116 6.26925ZM16.7053 29.6648L12.127 25.0865L10.0508 27.1627L14.6291 31.741L16.7053 29.6648ZM32.3718 21.1867C28.665 25.1834 22.6464 28.4865 19.2703 30.1416L20.5628 32.778C23.9693 31.108 30.4205 27.6085 34.5246 23.1834L32.3718 21.1867ZM11.6502 22.5215C13.3053 19.1454 16.6084 13.1268 20.605 9.41999L18.6084 7.26716C14.1832 11.3713 10.6837 17.8225 9.01373 21.229L11.6502 22.5215ZM38.5645 5.28447C37.9697 9.83238 36.3893 16.855 32.3718 21.1867L34.5246 23.1834C39.2138 18.1275 40.872 10.283 41.4759 5.66525L38.5645 5.28447ZM41.4759 5.66525C41.8891 2.50612 39.2857 -0.097313 36.1265 0.315862L36.5073 3.22729C37.7541 3.06422 38.7275 4.03763 38.5645 5.28447L41.4759 5.66525ZM12.127 25.0865C11.4161 24.3756 11.2424 23.3532 11.6502 22.5215L9.01373 21.229C8.01895 23.2581 8.5087 25.6206 10.0508 27.1627L12.127 25.0865ZM14.6291 31.741C16.1711 33.2831 18.5337 33.7728 20.5628 32.778L19.2703 30.1416C18.4385 30.5494 17.4162 30.3757 16.7053 29.6648L14.6291 31.741ZM15.4906 22.9133L22.7211 30.1438L24.7973 28.0676L17.5668 20.8371L15.4906 22.9133ZM8.18754 31.528L2.65094 37.0646L4.72717 39.1408L10.2638 33.6042L8.18754 31.528ZM4.03509 27.3755L1.26679 30.1438L3.34302 32.2201L6.11132 29.4518L4.03509 27.3755ZM12.34 35.6804L9.57169 38.4487L11.6479 40.525L14.4162 37.7567L12.34 35.6804ZM23.4132 10.7658C21.311 12.868 21.311 16.2764 23.4132 18.3786L25.4894 16.3024C24.5339 15.3468 24.5339 13.7975 25.4894 12.842L23.4132 10.7658ZM23.4132 18.3786C25.5154 20.4808 28.9238 20.4808 31.026 18.3786L28.9498 16.3024C27.9942 17.2579 26.445 17.2579 25.4894 16.3024L23.4132 18.3786ZM31.026 18.3786C33.1282 16.2764 33.1282 12.868 31.026 10.7658L28.9498 12.842C29.9053 13.7975 29.9053 15.3468 28.9498 16.3024L31.026 18.3786ZM31.026 10.7658C28.9238 8.66353 25.5154 8.66353 23.4132 10.7658L25.4894 12.842C26.445 11.8864 27.9942 11.8864 28.9498 12.842L31.026 10.7658ZM26.8736 32.2201L20.6449 38.4487L22.7211 40.525L28.9498 34.2963L26.8736 32.2201ZM26.4583 27.9292L27.012 31.8048L29.9187 31.3896L29.365 27.514L26.4583 27.9292ZM20.6449 38.4487C20.3597 38.7339 19.8714 38.5711 19.8144 38.1719L16.9077 38.5872C17.3069 41.3816 20.7251 42.521 22.7211 40.525L20.6449 38.4487ZM28.9498 34.2963C29.7122 33.5339 30.0712 32.457 29.9187 31.3896L27.012 31.8048C27.0338 31.9573 26.9825 32.1112 26.8736 32.2201L28.9498 34.2963ZM7.49542 12.842L1.26675 19.0707L3.34297 21.1469L9.57165 14.9182L7.49542 12.842ZM14.2778 12.4268L10.4021 11.8731L9.98689 14.7798L13.8625 15.3335L14.2778 12.4268ZM1.26675 19.0707C-0.729306 21.0667 0.410085 24.4849 3.20456 24.8841L3.61981 21.9774C3.22059 21.9204 3.05782 21.4321 3.34297 21.1469L1.26675 19.0707ZM9.57165 14.9182C9.68056 14.8093 9.83441 14.758 9.98689 14.7798L10.4021 11.8731C9.33474 11.7206 8.25785 12.0796 7.49542 12.842L9.57165 14.9182ZM31.2567 4.22142C33.178 3.73496 34.9988 3.42458 36.5073 3.22729L36.1265 0.315862C34.5306 0.52459 32.5929 0.854233 30.536 1.37502L31.2567 4.22142ZM20.605 9.41999C21.9742 8.15011 23.6261 7.1127 25.4116 6.26925L24.1575 3.61433C22.1734 4.55157 20.2503 5.7443 18.6084 7.26716L20.605 9.41999Z" fill="#A5A6F6"/>
</svg>
